<svg xmlns="http://www.w3.org/2000/svg" viewBox="0 0 552.15 244.86"><defs><style>.cls-1{fill:#fdfeff;}.cls-2{fill:#6bd4f2;}.cls-3{fill:#ed749d;}.cls-4{fill:#ffd900;}</style></defs><g id="Layer_2" data-name="Layer 2"><g id="Layer_1-2" data-name="Layer 1"><path id="path14" class="cls-1" d="M112.85,209.31c-1.28-5.77-4.22-7.75-8.76-7.75-5.67,0-8.77,3.53-8.77,12.67v4.06c0,9.14,3.1,12.67,8.77,12.67,4.81,0,7.53-2.35,8.76-7.75h4.44c-1.18,8.29-6.2,11.92-13.2,11.92-8.18,0-13.37-4.92-13.37-16.84v-4.06c0-11.92,5.19-16.84,13.37-16.84,7.27,0,12.08,3.85,13.25,11.92h-4.49"/><path id="path16" class="cls-1" d="M138,223.05v-3.53c0-5.07-2.46-8.12-6.84-8.12s-6.84,3.1-6.84,8.12v3.53c0,4.6,1.92,8.23,6.84,8.23C135.67,231.28,138,227.6,138,223.05Zm4.28,0c0,6.95-3.42,12.08-11.12,12.08-7.11,0-11.12-4.7-11.12-12.08v-3.53c0-7.59,4.12-12,11.12-12s11.12,4.33,11.12,12v3.53"/><path id="path18" class="cls-1" d="M146.79,208h4.27v2.62c1.18-1.82,3.21-3,6.63-3,3.58,0,6.31,1.44,7.81,4.22a9.19,9.19,0,0,1,8-4.22c5.72,0,9.2,3.53,9.2,10.48V234.7h-4.28V218.08c0-4.86-2.4-6.57-5.56-6.57-3.42,0-6,2.72-6,6.52V234.7h-4.28V218.08c0-4.86-2.41-6.57-5.56-6.57-3.47,0-6,2.83-6,6.52V234.7h-4.27V208"/><path id="path20" class="cls-1" d="M206.54,223.05v-3.53c0-5.07-2.45-8.12-6.84-8.12s-6.84,2.94-6.84,7.75v3.9c0,4.6,1.92,8.23,6.84,8.23C204.25,231.28,206.54,227.6,206.54,223.05Zm-13.68-12.4c1.44-2,3.74-3.1,7.27-3.1,6.63,0,10.69,4.33,10.69,12v3.53c0,6.95-3.42,12.08-10.69,12.08-3.58,0-5.83-.91-7.27-2.78v2.35h-4.28V197.82h4.28v12.83"/><path id="path22" class="cls-1" d="M216.16,208h4.28V234.7h-4.28Zm-.26-10.16h4.81v4.81H215.9v-4.81"/><path id="path24" class="cls-1" d="M227.12,208h4.27v2.62c1.34-2,3.21-3,7.17-3,5.71,0,9.73,3,9.73,10.48V234.7H244V218.08c0-5.4-2.94-6.57-6.09-6.57a6.23,6.23,0,0,0-6.53,6.52V234.7h-4.27V208"/><path id="path26" class="cls-1" d="M257.1,218.56h12.56c-.21-4.49-2.19-7.16-6.25-7.16S257.37,214.12,257.1,218.56Zm16.52,12.08c-1.87,3.26-4.71,4.49-9.36,4.49-7.16,0-11.44-4.65-11.44-12.08v-3.53c0-7.59,3.59-12,10.59-12s10.58,4.33,10.58,12v2.78H257.1v.75c0,4.6,2.19,8.23,6.84,8.23,3.48,0,5.24-1,6.36-3l3.32,2.35"/><path id="path28" class="cls-1" d="M295.8,223.43v-3.91c0-5-2.46-8.12-6.84-8.12s-6.85,3-6.85,8.12v3.53c0,4.55,2.3,8.23,6.85,8.23,4.75,0,6.84-3.42,6.84-7.85Zm0-25.61h4.27V234.7H295.8v-2.35c-1.45,1.87-3.74,2.78-7.27,2.78-7.27,0-10.69-5.13-10.69-12.08v-3.53c0-7.64,4.06-12,10.69-12,3.53,0,5.82,1.12,7.27,3.1V197.82"/><path id="path30" class="cls-1" d="M324.44,222.09H336.1l-5.83-17.32ZM315.3,234.7l12.83-36.88h4.28l12.83,36.88h-4.87l-2.83-8.44H323l-2.83,8.44H315.3"/><path id="path32" class="cls-1" d="M369.34,234.7h-4.27v-2.61c-1.34,2-3.21,3-7.17,3-5.72,0-9.73-3-9.73-10.48V208h4.28V224.6c0,5.4,2.94,6.57,6.09,6.57a6.23,6.23,0,0,0,6.53-6.52V208h4.27V234.7"/><path id="path34" class="cls-1" d="M372.86,208h3.43V202.1h4.27V208h6.15v3.85h-6.15V225.4c0,3.69.43,5.24,4,5.24h2.14v4.06h-2.3c-6.3,0-8.12-2.67-8.12-8.23V211.83h-3.43V208"/><path id="path36" class="cls-1" d="M391,197.82h4.28V210.6c1.34-2,3.21-3,7.16-3,5.72,0,9.73,3,9.73,10.48V234.7h-4.28V218.08c0-5.4-2.94-6.57-6.09-6.57a6.22,6.22,0,0,0-6.52,6.52V234.7H391V197.82"/><path id="path38" class="cls-1" d="M434.65,223.05v-3.53c0-5.07-2.46-8.12-6.84-8.12s-6.84,3.1-6.84,8.12v3.53c0,4.6,1.92,8.23,6.84,8.23C432.35,231.28,434.65,227.6,434.65,223.05Zm4.28,0c0,6.95-3.42,12.08-11.12,12.08-7.11,0-11.12-4.7-11.12-12.08v-3.53c0-7.59,4.12-12,11.12-12s11.12,4.33,11.12,12v3.53"/><path id="path40" class="cls-1" d="M458,213.75a5.07,5.07,0,0,0-4.49-2.24c-3.26,0-5.71,2.45-5.71,6.46V234.7h-4.28V208h4.28v2.62c1.12-1.87,2.93-3,6.19-3,3.64,0,5.94,1.23,7.65,3.64L458,213.75"/><path id="path42" class="cls-1" d="M464.26,208h4.27V234.7h-4.27ZM464,197.82h4.81v4.81H464v-4.81"/><path id="path44" class="cls-1" d="M472.86,208h3.42V202.1h4.28V208h6.15v3.85h-6.15V225.4c0,3.69.43,5.24,4,5.24h2.14v4.06h-2.3c-6.31,0-8.13-2.67-8.13-8.23V211.83h-3.42V208"/><path id="path46" class="cls-1" d="M498.25,235l-10.48-27h4.6l8,20.74,7-20.74h4.54l-9.41,27.58c-2.19,6.41-3.63,9.3-11.11,9.3v-4.17c3.52,0,5.18-.59,6.78-5.34l.11-.38"/><path id="path48" class="cls-1" d="M120.52,81.7H102.31l-18-80.53h21l8.75,48.08L128.34,1.17h16.92L159.85,49.6l8.76-48.43h21l-18,80.53H153.32l-16.46-52L120.52,81.7"/><path id="path50" class="cls-1" d="M245.38,1.17v16.1H213.87V32h28V48.09h-28v17.5h31.51V81.7H194.49V1.17h50.89"/><path id="path52" class="cls-1" d="M296.49,23.46c-3.16-5.37-7.12-7.35-14.36-7.35-6.42,0-9.22,2.91-9.22,7,0,4.79,4.2,7.47,14.36,10.39,17.5,5,24.16,11.55,24.16,25.33,0,14.58-9.81,24-28.13,24-14.71,0-24.63-3.62-32.22-13.19l14.48-10.15c4,5,8.87,7.23,16.1,7.23,7.47,0,10.39-3.15,10.39-7,0-4.67-3.27-7-15.17-10.86-16.34-5.25-23.35-12.72-23.35-25.67C253.53,9.92,262.29,0,281.89,0c12.84,0,23.23,4.32,28.95,13.19L296.49,23.46"/><path id="path54" class="cls-1" d="M377.35,1.17v16.1h-21V81.7H337V17.27H316V1.17h61.39"/><path id="path56" class="cls-1" d="M423.61,47.74c0,13.19,4.32,19,12.38,19s12.37-5.83,12.37-19V35.13c0-13.19-4.32-19-12.37-19s-12.38,5.83-12.38,19ZM436,82.87c-18.33,0-31.75-11.09-31.75-35.13V35.13C404.24,10.85,417.66,0,436,0s31.74,10.85,31.74,35.13V47.74c0,24-13.42,35.13-31.74,35.13"/><path id="path58" class="cls-1" d="M525.24,1.17v16.1H493.72V33.85h28V50h-28V81.7H474.35V1.17h50.89"/><path id="path60" class="cls-1" d="M141.65,100.85V117H110.13v14.71h28v16.11h-28v17.5h31.52v16.11H90.76V100.85h50.89"/><path id="path62" class="cls-1" d="M211.91,100.85v80.53H196.27L166.63,136.8v44.58H148.42V100.85h15.41L193.7,146V100.85h18.21"/><path id="path64" class="cls-1" d="M280.66,138.78v8.64c0,24-11.32,35.13-29.65,35.13s-31.74-11.09-31.74-35.13v-11c0-25.92,13.42-36.77,31.74-36.77,17.51,0,27.32,10.27,29.65,26H262.22c-.82-5-4.21-9.92-11.21-9.92-8,0-12.37,5.83-12.37,19v12.61c0,13.19,4.32,19,12.37,19,7.82,0,10.39-4.9,11.09-11.55H251.36V138.78h29.3"/><path id="path66" class="cls-1" d="M307.16,165.27h31.51v16.11H287.78V100.85h19.38v64.42"/><path id="path68" class="cls-1" d="M370.78,151.5H385.6l-7.35-23.81-7.47,23.81ZM340.9,181.38l28-80.53h18.67l28,80.53H394.94l-4.32-13.77H365.76l-4.2,13.77H340.9"/><path id="path70" class="cls-1" d="M484,100.85v80.53H468.37L438.72,136.8v44.58H420.51V100.85h15.41L465.8,146V100.85H484"/><path id="path72" class="cls-1" d="M534.3,147V135.28c0-10.86-2.33-18.33-12.37-18.33H511.31v48.32h10.62C532,165.27,534.3,157.8,534.3,147Zm-42.37,34.43V100.85h30c18.32,0,30.22,9,30.22,34.43V147c0,25.21-11.9,34.43-30.22,34.43h-30"/><path id="path74" class="cls-2" d="M0,73H71.81V1.17H0V73"/><path id="path76" class="cls-3" d="M0,154H71.81V82.15H0V154"/><path id="path78" class="cls-4" d="M0,234.94H71.81V163.13H0v71.81"/></g></g></svg>